<?xml version="1.0" encoding="UTF-8"?>
<svg version="1.1" viewBox="0 0 2048 624" xmlns="http://www.w3.org/2000/svg">
<path transform="translate(1098,4)" d="m0 0h36l1 1v33l27-2 8-4 11-7 6-3 10-1h49l3 7 228 1 27 1 3 4 1 6 207 1 2 6 2 20 10 8 16 9 16 7 20 6 17 3 10 1h144l2-4 10-16 10-15 15-31 10-22 1-1h30l1 4 1 58 1 20 2 6 4 2 9 1v56h-311l-200-1v38l-250 1-17 4-19 8-21 9-19 5-13 2h-21l-12-5-30-18-3-1h-79l4 38 7 36 7 24 9 25 9 20 10 20 11 18 11 16 11 14 12 14 21 21 8 7 14 11 18 13 9 7 4 5 2 4-1 8-12 23-17 28-18 30-17 28-8 7h-11l-12-6-17-12-13-11-10-9-12-11-18-18-7-8-10-11-9-11-13-16-12-16-16-23-13-21-14-24-14-27-11-25-10-26-9-28-7-28-6-36-2-21-1-22-7-1v78l-195 1-9 10-9 11-12 14-20 25-7 12-5 19-8 58-4 9-5 4-3 1h-7l-67-18-29-8-5-4-2-4 1-8 6-11 17-34 16-36 14-31 11-26v-18l-3-15-5-12-8-11-8-7-10 3-62 22-37 13-56 19-36 12-54 17-65 20-52 17-41 14-41 13-28 7-10 2h-19l-6-4-3-5v-18l-2-39-4-34-6-35-7-30-7-23-1-2v-11l6-7 8-3 267-30 27-3h22l11 3 16 7 7 2 8 1h11l59-7 97-13 1-13 3-10 5-8 7-7 8-5 7-2 8-1 5-13 6-8 7-6 12-6 8-2 45-1 381-1h56zm-389 203-1 59 1 1 122-1 10-1-1-12-4-31-1-14-79-1z"/>
</svg>
