<?xml version="1.0" encoding="UTF-8"?>
<svg version="1.1" viewBox="0 0 4000 1324" xmlns="http://www.w3.org/2000/svg">
<path transform="translate(2290)" d="m0 0 1 2 4 1v2l9 2 15 5 16 8 15 10 14 6 16 4 15 2 20 5 21 9 16 8 15 4 24 4 14 4 19 8 15 8 10 4 8 2 19 3 21 6 19 9 14 8 17 6 26 5 19 6 6 4 2 4-1 8-8 25 1 6 5 12 3 14v14l-4 23-10 35-12 38-8 16-6 10-10 11-9 7h114l252 1 120 1 10 2 5 8 3 20 12 2 35 9 57 14 44 9 39 7 19 4 28 1 54 1v-3l22 1v-58l14-26 10-17 12-19 4-8v-14l-1-17v-39l1-18 4-6h9l12 3h16l8-3h9l3 5 2 24v34l-1 17v29l1 15 1 74 1 23 1 3 1 15 8 3 14 8 5 3h11l9 1 3-12 6-4h11l3 2v2h2v2l4-2 3-4h9l10 5 5 4h108l4-1h42l2-6 9-2h160l4 4 2 11 1 25v7l1 7-1 1v22l-3 21-3 4-20 1-148-1-2-2-1-6h-43l-5-1h-107l-10 7-7 3-7-1-3-2v-4l-3 1-2 1-2 4-9 1-7-2-2-1-4-13-13-1-11 3-15 9-9 4-1 50 65-1 9-10 4-21 3-2 18-2h16l4 4 3 7 2 17 2 28 1 7 4 7v9l-2 5-2 2-4 44-4 11-3 3h-34l-2-1-2-5-1-10-58-1-15-1-4-12-8-1-3 9-1 1h-61l-7-1-2 1h-32l-15-1-3 19-5 5h-7l-4-3-3-9h-8l-2 3h-2l-1 5-6 5-3 3 3 9 6 4 12 4 1 3-1 13 16 2 3 2v19l-1 25-4 3-15 3h-6l-1 9-6 9-6 5-4 2h-94l-10-9-8-10-207-7-29-1-9 3-17 2-26-5-5-2-37-1-128-4-4-1v32l-2 1h-20l-2-1-3-12-3-1-5 1-1 5v25l-2 9-5 5-14 9-26 15-14 9-11 9-8 11-2 6v57l2 11 3 5 9 7 1 1-1 8-6 20-1 6v19l4 17 5 13-1 6-4 13-2 11v21l4 16 3 6-1 6-3 5-3 14v13l3 12 7 12 2 3v7l-1 6 2 2v17l-1 38-1 8-6 5-18 2-41 2h-90l-6-2-5-6-3-39-1-22 2-2-1-5-2-8-3-51-1-30v-40l3-71 1-19 3-6 10-15 3-9v-58l1-23v-30l-25-5-18-6-16-9-10-8-3-8-1-4-20-1-1-1-1-12h-18l-2 13h-24l-2-12-4-1h-14l-2 13-2 1h-17l-5-2-2-11-11-1h-8l-1 13-1 1h-21l-2-1-1-13h-20l-1 13-1 1h-21l-1-1v-38l-22 2h-8l1 34 1 3v8l-9 7-11 3-14-1-12-5-11-7-10-9-7-7-9-13-8-17-7-19-4-16-1-7v-25l2-11-72 1-11 6 2 10 3 6-1 5-8 3v14l18 1 10 5 9 8 1 2 1 10v30l6-2 6 1 8 4 10 3 20 3h8l1 5-7 26-2 23-3 64-6 76-7 60-2 18v35l7 64 3 30 1 35-3 5-8 7-6 4-4 8-8 8-6 10-5 6-7-2-9-6-7-9-3-4-15-2-58 11-15 3-9 2-4-2-3-6h-5l-6 5-5 3-2 9-9 3-7 2 1 2h-7l-1-2-11-5-15-4-2 5-4 5v1h-30l-13-3-16-4-12-6-17-14-13-6-9-1-10 9-8 6-6 3h-6l-8-7-10-12-6-13 1-8 1-65 1-39 1-17v-17l-2-11-6-11-5-8 3-3 15-2 2-1v-18l-5-114v-22h-2l-1 4-8 13-11 13-11 10-13 8-15 6-15 3-38 4-33 3-21 1-12-2-16-6-30-13-23-11-10-8-6-9-2-5-2-12-2 1-10 28-14 37-17 43-19 48-18 46-19 47-8 21-2 11v19l4 13 4 10v9l-5 10-7 9-7 6-8 1-30-6-133-30-42-11-42-12-20-7-8-4-5-5-1-8 3-5h2v-2l9-7h2l2-4 6-7 18-27 12-19 17-29 16-28 17-29 16-26 29-49 13-21 10-15 13-21 5-14 1-5v-19l-4-16-6-11-9-10-13-8-18-7-2-4v-7l-27 1-9-12-4-5-11-7-8-3-21-1h-28l-35-1-1 3-7 1-4-1-18-1-10 1-11-1-16-8-31-17-3-5-7-20-6-19-75-1-3-3-1-5-11 1-7 2-3 50-1 51-3 6-7 7-5 2h-56l-5-2-4-4v-2h-2l-2-4-1-47-2-1-4 8-6 7-16-1-9-3-10-8-10-4-18-1h-76l-19 3-14 5-11 6-11 8-10 9-9 10-11 17-8 16-6 20-3 16-1 9v19l5 23 6 17 9 19 6 12 1 4v12l-4 11-4 6-8 8-7 4-9 2-16 1-95 3-91 2-68 2h-31l-2 6-5 2-41 1-3-1v-2l-3-1-8-10-9 1-7-3-4-5-3-12-1-18h-40l-5-2-4-5-1-2v-13l2-26 3-4v-7l-3-2-1-3v-8l4-10-1-4-4-6 1-9 3-6v-6l-5-8 3-11 2-4-1-7-4-5 1-8 3-6v-7l-4-7 1-8 3-6v-7l-4-6v-7l4-9v-5l-4-6v-8l4-10-1-5-3-5v-8l3-7v-8l-3-5v-10l3-6v-6l-2-4-2-1v-11l3-7v-5l-5-5-1-8 3-12-3-5-3-3-1-9 2-7-1-7-6-7-1-3v-7l3-8h-2l-2-4-5-4-1-3v-11l1-5-7-8-3-5v-15l-9-9-5-19-1-12 2-14 5-15 7-11 9-6 16-4 30-6 3-9 2-5 5-1 15 4 20 8 29 13 23 11 9 7 3 3v-8l4-8 6-5 116 6 80 5 107 8 139 11 50 4 12 2 14 7 8 7 8 11 2 3v3h6l5-1 3 5 1 2h4l4-7 8-3h6l6 3 50 3 5 2 5 6 2 13 2 42v5h19l1-15 4-3 20-6h2l-8-29-9-31-3-6-6-4-12-36-9-30-4-16v-6l4-4 10-4 5-1h9l9 1 27-8 25-7 17-5h2l-6-21 2-3 28-1-1-6-10-6-3-4 1-7 5-6 11-4h2l1-19 4-16 6-15 9-14 11-12 14-10 16-8 15-4 8-1h18l15 3 47 12 41 11 40 11 14 7 11 10 7 10 5 12 1 49 7 1-1-13v-42l1-1h20l1 1 1 12 19 1 1-13 1-1h22l2 1 1 12 19 1 1-13 1-1h22l2 1 1 13 19-1 2-13h21l3 2v12h21v-12l1-2h22l2 2v12h21l1-13 1-1h20l3 2v12h21v-8l2-6h19l4 2v12h22v-13l1-1h19l3 1 1 2v11h21l1-13 1-1h19l3 1 1 2v10l21 1 1-13 1-1h19l4 2v12h22v-13l2-1h17l5 2v12h22v-13l1-1h19l4 2v12h22v-10l2-4h17l4 1 1 3v9l9 1h13v-9l1-4 15-1 7 1 1 2v12l21-1 2-13h22l1 1v13h22v-9l1-5h22l1 2v12h22l1-14h22l1 1 1 12 21 1v-9l1-5h16l1 1v61l47-1-3-9h-2l-1-2-5-1-2-3v-19l6-16 7-12h2v-2l3-2 6 1 9 10v2h2l7 8 7 7 7 10 7 14 3 13 2 9 10 2h8l5-10 7-17 5-8 19 4 5 3 8 10 13 18 5 7 4 3 1-30 7-8 3-3h44l3 2 82 1 5 3 7 9 9 4h27l117-1 32-1 13-2 9-4 6-5 6-10 10-30 11-38 5-19-5-5-15-10-21-12-16-5-22-3-19-5-15-6-16-8-12-4-11-2-15-1-22-6-16-6-19-9-15-4-17-1-18-4-20-7-20-9-11-3-6-1h-28l-18-3-21-6-6-4-1-2v-7l6-21 9-31 7-24 4-12 4-6zm2 3m-1163 240-11 2-10 5-8 7-6 10-3 8-1 4v13l3 9 2 1 41 1h24l4-4 3-11v-13l-4-11-7-11-8-6-7-3zm2372 126-9 7-6 7 1 5 6 9 8 5 7 1 10-4 4-6 1-3v-8l-3-6-7-6-2-1zm-1197 10m-1 2m0 9 1 3zm193 1v3 3l4 1h25v-3l-1-2-12-2zm72 0-1 5 4 2h25l-1-4-7-3zm72 0v5l2 2h29l-3-5-8-2zm72 0 1 7 28 1 1-4-5-3-5-1zm118 0-1 4 1 3 4 1h24v-5l-10-3zm73 0-1 5 1 2 3 1h23l1-5-7-2zm72 0-1 1v6l3 1h23l1-5-4-2zm72 0-1 4 2 4h26l-1-5-6-2-9-1zm-744 3-1 5-4 2h-13l-12-1h-3v3l13 2 9 11 9 10 6 7h1l-1-38zm61 4-9 1-1 5 2 8 6 9 2 2h4l1-23-2-2zm788 17 2 5 13 11 3 3 84 9h7v-1l-11-2v-1l-30-7-40-10-19-5zm-2951 49m1 1m3131 94-3 3 14 2h3v-2h6l1 2 1-1h14l13-1v-1l-38-1-1-1zm50 2-1 2-3 1-21 2v1h23l1 10 1 2 11 1 3 7 4 3h7l4-6v-5l-2-1-13-2 1-2-8-1-2-9-2-3zm-55 2 1 2h5l-1-2zm25 3m50 8m6 0 4 2 9-1v-1zm16 1m3 2v2l-3 1 2 2 2 15 2-1 1-1v5l3-1v-17l-5-5zm-7 1m11 0m2 24m-429 114-6 3 1 3h-5l-1 3 8 1 21-1-3-3-2 1-1-5-4-1v-1zm9 1m-1209 3-6 12-8 7-7 1-13 1-6 3-1 67-1 8-6 2-4 3 2 3h8l6-2h8l9 1 8-4 1-7v-12l1-17 6-10 6-5 7-5 1-5 3-1 1-1v3l9 1 1-4h-8l2-2h-6l-5-1h-7l1-6 1-27-1-3zm1389 0v3l2 3v-3l8-1 1 4 2-2 3 1 1-2-1-2-7-1zm-263 3m271 2m-8 2v1h5v-1zm6 0m4 0v1h11v-1zm-1501 24-10 6-5 7-3 11 1 8 5 8 8 7 6 2h11l8-3 8-7 4-9v-10l-5-10-8-8-5-2zm127 9m1 2m-1067 3 1 3 1-3zm737 59-5 1-1 43-2 14-3 7v56l3 10 7 7 17 9 30 13 21 8 4 1h28l67-6 15-3 13-5 12-7 11-9 7-8 7-10 6-13 4-14v-19l-5-53-2-20-2-2h-57l-21 12-29 14-18 10-11 9-9 10-6 12-2 6-1 7v16l3 12 7 14 13 13 11 8 4 5 1 3-13-1-15-4-13-6-11-7-13-13-8-13-6-18-4-20-5-31-7-25-5-12-1-1zm250 0m-4 2m4 1 4 1zm-408 447 2 5h-2v2l6 1 2-4-2-4zm-1 1 1 2z"/>
<path transform="translate(1866,1322)" d="m0 0 6 1v1h-8z"/>
<path transform="translate(1935,1322)" d="m0 0 1 2-2-1z"/>
<path transform="translate(3430,591)" d="m0 0"/>
<path transform="translate(1478,944)" d="m0 0"/>
<path transform="translate(3430,588)" d="m0 0"/>
<path transform="translate(2975,393)" d="m0 0"/>
<path transform="translate(2903,393)" d="m0 0"/>
<path transform="translate(1947,1323)" d="m0 0"/>
<path transform="translate(1863,1322)" d="m0 0"/>
<path transform="translate(1911,1315)" d="m0 0"/>
<path transform="translate(1962,1308)" d="m0 0"/>
<path transform="translate(1206,826)" d="m0 0"/>
<path transform="translate(1816,757)" d="m0 0"/>
<path transform="translate(1806,726)" d="m0 0"/>
<path transform="translate(3636,558)" d="m0 0"/>
<path transform="translate(2367,400)" d="m0 0"/>
<path transform="translate(3072,395)" d="m0 0"/>
<path transform="translate(3071,394)" d="m0 0"/>
<path transform="translate(2739,394)" d="m0 0"/>
<path transform="translate(2667,394)" d="m0 0"/>
<path transform="translate(2518,394)" d="m0 0"/>
<path transform="translate(3047,393)" d="m0 0"/>
<path transform="translate(2569,393)" d="m0 0"/>
</svg>
