<?xml version="1.0" encoding="UTF-8"?>
<svg version="1.1" viewBox="0 0 2048 616"  xmlns="http://www.w3.org/2000/svg">
<path transform="translate(2e3 5)" d="m0 0h28l4 4 3 7 1 5 1 78 1 4h14v45l-13 2-5 1-1 3h-39l-5-12v-2l-15 1-2 6v13l-4 11-2 3-69 1-2 5-1 21-5 8h-26l-7-10h-14l-21 1-2 2-67 1-4 1-77 4-19 2-5 6-21 3-29 2-9 1-40 2-4 1-32 2-26 1-22 2h-10v2l-47 2-24 1-41 5-58 2-26 3-1 1-7 1-67 2-17 3-1 1-14 1-46 1-15 1-10 2-8 1-1 1-22 1-39 1-12 1-1 1-19 1v2l-65 2-17 1-3 2-21 2-55 2-9 1-1 1-19 2-37 1-4 4-3 9-1 31-2 13-5 12-9 17-8 9-5 1-1 2-13 1h-46l-5-5-2-5-4-2-7-13-3-5-2-9-2-37-2-11-3-5-4-1-16 1-7 2-11 6-22 16-14 14-11 14-8 13-8 16-6 13-6 12-8 9-10 7-8 3h-13l-7-2-14-2-3-2-6-1h-31v2l-12 4-14 8-21 13-21 12-19 12-21 13-23 14-20 12-22 14-25 15-22 13-17 10-16 10-47 29-23 14-10 5-12 1-9-2-9-6-7-8-8-14-5-22-6-37-6-45-4-36-2-34-2-15-1-13-1-34-2-27 1-13 3-18 7-18 6-8 4-5 8-6 19-4 47-5 2-1 46-5 26-4 22-1 20-3 7-2 10-1 22-1 18-3 7-2 36-2 20-5 35-2 1-1 14-2 1-1 7-1h24l8 4 9 5 6 4 8 4 3 2 12 1h19l10-2 16-8 25-13 22-12 30-15 19-10 15-8 2-4 1-23 4-10 4-5 5-3 5-14 4-16 4-6 1-1h49l5 8 4 14h14l5-17 4-6h62l8 15 1 5 150-1 5-15 3-4h69l4 8 3 11h100l2-8-1-11-5-8-55-1-4-8v-6l5-7 10-4 2-2 6 1 4 4 4-1 5-5 5 1 6 5 4-2 6-5 8 6h4l6-5h4l5 5h4l9-6 3 4 3 1 1 2 4-2 6-5 4 2 6 5 4-2 3-1v-2l5-2 6 5 1 2 4-2 5-4 4 1 5 3 2 2h2l1-3 5-3 2-1 3 2v2l4 2h4l7-6 4 2 5 5 4-2 7-5 8 6h4l5-5 5 1 6 5 4-2 3-1v-2l4-2 8 7 5-2 3-3h6l6 5 4-2 3-3h5l5 4 7 1 5 8v6l-5 8-66 1-6 9-1 3v10l2 5 345 1 13 13 327 1 2-8 1-9 1-69 5-10zm-1319 277-4 4 1 4 1 37 7 21v6l-3 3v2l-5-2-4-7-5-21-3-18-1-15-2-5h2v-5l-1-1h-10l-5 2-5 6-3 7 1 29 4 15 7 14 4 4h53l5-3 7-8 8-17 2-7 1-8v-10l-2-11-5-10-5-6z"/>
</svg>
