<?xml version="1.0" encoding="UTF-8"?>
<svg version="1.1" viewBox="0 0 1888 1324" xmlns="http://www.w3.org/2000/svg">
<path transform="translate(171,8)" d="m0 0h20l5 5 4 9 7 20 3 4v2h1527l13-1 5-5 9-23 4-5 2-1 17-1 9 3 8 7 10 11 9 11 5 3 20 4 10 5 6 7 4 8 5 12 7 8 4 8 3 12h1v74l-2-3-2 18-3 17-3 7-3 5-1 8-1 90-2 22-4 25-4 10-4 3-6 2-3 11-7 14-8 6-6 2-49 2-15 1-5-8-3-9h-30l-2 5-7 10-5 3-4 1-16 1-62 2-193 4-78 1-15 2-17 6-12 8-3 3h-2v2l-7 6-1 2h-2l-2 4-7 10-6 14-5 20-4 33v41l4 35 5 24 11 35 7 20 1 9-2 6-5 6-14 3-20 1-96 2-14 1-82 2-43 1-18 1-79 2h-19l-18-2-23-5-16-6-24-14-19-9-15-4h-13l-17 4-14 6-13 9-7 6-9 13-8 15-10 23-9 24-22 61-36 92-14 36-16 41-11 28-11 30-9 28-6 23-4 25-1 11v42l-4 12-6 8-8 3-26 4v2l10 4 10 3 6 4 5 6 1 8-4 13-6 9-8 7-20 12-16 8-10 2-24-1-303-28-46-4-9-2-6-5-5-10-1-10 4-17 4-8 8-11 10-11 6-10-4-3-28-5-13-2-9-7-7-9-10-7-20-12-22-15-12-11-5-8v-16l16-62 11-32 15-35 12-25 15-30 12-21 8-16 12-23 12-21 11-19 10-16 19-29 12-20 12-23 9-17 13-28 13-31 7-17 6-17 11-30 8-28 6-28 2-14 1-14v-24l-3-16-8-24-9-17-10-14-9-10-5-6-11-9-13-9-18-10-21-8-24-5-21-1-8-2-9-7-5-9-2-6v-12l5-13 10-18 6-10 1-2 2-24 3-11-1-6-2-4v-113l1-38 3-13 5-8 8-7 9-4 20-1 4-2 5-12 6-17 4-6zm1715 141v27h1v-27zm-765 286-33 3-64 8-52 7-9 3-5 10-4 17-1 8v46l2 10 3 6 13 16 9 10 11 13 7 8 9 10 12 13 7 12 1 5-3 10-4 4-4 1h-13l-1 15-2 4-2 1h-7l-12-4-16-8-14-9-13-10-14-12-12-13-14-19-11-18-8-16-4-3-34-10-27-9-4 1-3 8-2 20 2 18 4 15 7 16 6 11 10 14 11 11 15 10 19 9 17 5 19 3h29l35-1 72-1 19-1 52-1 22-1 16-3 15-6 12-7 9-7v-2h2l10-13 8-14 6-16 3-16 2-28-2-45-3-16-5-16-8-14-11-13-11-9-13-8-15-6-19-5-7-1z"/>
</svg>
