<?xml version="1.0" encoding="UTF-8"?>
<svg version="1.1" viewBox="0 0 2048 557"  xmlns="http://www.w3.org/2000/svg">
<path transform="translate(2020,2)" d="m0 0h14l10 1 2 8 2 22v13l-2 20-1 5-3 2-1 6 4 1 2 9v31l-2 11-1 1-69 2-56 1-31 1-64 1-30 1-62 1-31 1-60 1-34 1-61 1-37 1-66 1-73 2-8 6-8 8-13 17-6 5-11 4-19 3-10 1-41 2-96 1h-171l-223-1-24-1-5 6-1 3v15l1 9v16l-4 13-6 8-10 7-15 5-12 2h-16l-16-4-9-5-7-7-7-12-5-15-6-22-7-13-9-9-3-1h-17l-8 7-18 18-9 11-11 15-9 16-8 17-9 25-5 21-2 13-1 27-3 4-10 2-10 1h-16l-16-3-20-7-7-12-4-3-3-1h-7l-17 5-26 12-26 14-59 35-21 13-23 14-21 13-23 14-28 17-20 12-28 17-29 17-28 17-24 14-6 2-6-1-3-5-2-14v-47l-1-49-3-53-5-56-10-100v-12l4-18 4-8 5-6 8-5 15-4 100-18 214-38 57-10h6l10 17 7 9 8 7 9 3 9-1 13-5 13-8 19-13 13-10 15-10 16-9 21-10 10-6 24-12 27-11 27-9-1-7v-9l3-5 4-2 17-2h106l21 3 4 1h84l182-3 35-1 82-1 32-1 84-1 31-1 80-1 25-1 85-1 28-1 82-1 34-1 79-1 25-1 136-2zm-1348 192-6 9-6 15-1 4v12l5 16v5l-5-3-6-11-3-11v-19l1-12-4 2-4 5-3 8v13l4 14 12 13 3 3 11 4h29l13-5 9-8 4-10v-16l-4-11-8-9-10-5-7-2-8-1z"/>
</svg>
