<?xml version="1.0" encoding="UTF-8"?>
<svg version="1.1" viewBox="0 0 2848 1324"  xmlns="http://www.w3.org/2000/svg">
<path transform="translate(2151,15)" d="m0 0h16l9 2 10 5 10 8 5 7 1 32 1 57 1 17 7 27 15 53 4 1h580l5 5 9 14 8 15 8 22 4 18 1 13v21l-2 19-5 19-6 17-10 19-8 12-3 3-455 1-127 1-11 19-6 12-5 7h-515l-355-1-3-5-11-33v-3l-7 3-10 7-5 4-6 9-5 10-3 12-1 8v22l3 21 7 26 3 7v5l-7 7-7 6-11 11 1 12 8 46 8 39 10 42 10 38 13 43 12 36 13 37 16 41 14 33 16 36 17 35 9 19 12 22 12 23 12 21 10 17 12 20 14 22 18 27 11 16 15 20-1 4-12 7-10 7-15 10-25 17-12 8-34 23-19 13-4 1-26-26-9-11-11-13-12-16-14-20-11-17-15-25-12-21-15-28-17-34-15-33-15-34-20-49-18-48-18-50-22-66-20-66-16-56-12-45-8-32v-2l-7 1-54 1-8 32-9 27-12 27-10 19-15 24-13 18-14 17-11 12-10 10-2 1h-165l-11-6-32-19-28-17-4-1-10 9-7 10-8 18-5 18-4 22-4 6-5 5-7 8-7 12-6 17-3 12-1 7-1 19-13 13-8 13-6 12-6 16-8 30-5 28-2 14-2 3-11 1h-35l-16-2-20-4-27-9-25-12-15-9-17-12-15-13-5-4v-2l-4-2-4-4v-2h-2l-7-8-11-13-12-17-1-6 2-17 5-22 10-28 11-24 11-21 14-24 15-24 13-19 9-10 11-7 16-15 9-10 11-15 11-18 10-19 8-19 4-11 1-10v-14l-4-18-6-15-7-12-7-9-9-10-11-10-17-12-18-10-19-9-11-4-18-1-133-4h-30l-9 7-5 6h-2l-2 4-7 8-10 13-12 19-12 21-15 29-13 28-9 21-18 45-11 30-9 26-5 4-16 6-17 4h-16l-9-2-11-6-10-10-6-10-6-17v-13l8-11 14-26 11-27 9-29 7-30 6-36 4-36 2-27 1-25v-69l-2-43-4-47-4-33v-12l4-10 6-7 12-6 3-1h18l127 23 26 5 4 1 3-20 6-24 8-21 8-16 7-12 5-5 3-1 180-11 4-8 18-47 6-16 3-1 26 12 49 22 35 16 27 12 4 1h40l346-2 228-3 7-1 16-11 20-14 16-11 7-5 4 1 21 16 19 14 13 10 12 9 9-6 10-9 14-11 13-11 5-4h2v-2l5-4 4 2 5 4v2l4 2 10 9 2 1v2l4 2 16 15 8 7 5 3h176l119-1 312-2v-50l1-62 7-8 12-9 10-4zm-1161 607-132 3-4 1-10 17-8 20-3 16v19l3 15 6 15 5 9 1 7-3 9-3 4-7-1-9-8-12-18-9-19-6-20-3-21v-19l2-18 1-7-61 1-2 1-3 26-5 29-6 27-5 15 1 4 16 9 45 27h138l9-10 11-14 14-20 10-17 11-21 10-25 6-19 3-11v-6z"/>
</svg>
