<?xml version="1.0" encoding="UTF-8"?>
<svg version="1.1" viewBox="0 0 2048 537"  xmlns="http://www.w3.org/2000/svg">
<path transform="translate(746,2)" d="m0 0h61v42l3 7h18l-7-6-12-5-1-11v-9l1-1h195l1 1v10l-10 4-34 6-28 7-19 6 52-4 61-6 94-10h16l11 4 7 8 3 8 1 6v23l-2 26-3 10-5 7-10 5-6 1h-23l-40-4-41-6-30-5-8-1h-79l-20 1v2l24 24v2h2v-9h16v13l49-1 307-3 142-1 53-1h109l7 7 8 7 10 9 3 2 414 1 5 6 2 6v10l-4 11-8 7-7 2-14 1-49 1-145 1h-190v4l-6 1-50 2-30 1-1 6h-5v2l10 3 9 6 8 8 4 6v2h20l1-7 4-6 4-3 8-1 9 3 7 6 7 1h16l6-5 11-1 5 2 4 7 2 7v8l11-3 8-1 5-4 2-1h8l6 5 4 8 2 6 1 11-3 10-7 8-4 3-9 1-2-2v-10l-43 1-213 9-5 5-9 8-10 6-15 5-11 2h-17l-10-2-10-4-4-3-10-2-5-4-2-6v-18l1-8-9-1-5-4-1-7 1-4-6-1-5-4-6-12-2-10-72 1-265 3-20 2-11 4-6 4-5 10-1 3v29l3 24 2 6-1 7-5 4-6 1 2 35 1 25v21l-3 7-5 4-10 4-22 5-36 6-28 4-12 2h-7l-5-5-1-6v-28l2-40 1-7-116 1-9 5-7 8-2 6-2 11-3 6-4 3-8 4-5 7-1 10 1 6v8l-4 7-11 10-5 11-4 14 6-2h14l9 3 3 3 1 8-3 10-7 11-6 5-19 5-37 8-10 2h-38l-35-10-32-5-8-4-4-5-2-5v-8l4-10 8-9 11-5 20-3 18 1 6-21 5-15 7-11 11-11 3-6 1-17 4-9 4-6 8-9 15-11 17-10 12-11 5-12v-13l-4-21-4-8-7-6-11-4-5-1h-26l-24 4-32 8-36 11-41 13-80 28-36 12-58 19-57 18-39 12-28 9-29 9-20 7h-12l-6-7-4-10-5-25-8-53-7-52-7-61-2-25v-13l3-8 7-6 6-2h538v-6h-8l-1-5h9v-6h-6v-14h112l1-5 5-7 1-4-47 3h-16l-1 3-6 4-10 1-7-1 1-7h-19v10l-1 1h-6l-1-5-1-1-21 2-59 3-21 1h-14l-2-11v-35l2-35 1-1h50l49 3 13 1 1-4 6 1v6h9l2-4 9-3h12l15 2 3 3v2h55v-5l2-2h31v6l35-1 2-5 4-1zm-39 110-1 1v5l1 1h17l1 6h27l1-2 8-1v16l12 1 1-1v-10h13v11l1 1h5l1-3v-8h9v-6h10v6h34l4-6 2-10-1-1zm-13 184-8 6-6 8-2 6v10l4 11 7 9 4 3 5 1h60l9-2 5-6 4-11 2-15-4-10-7-7-6-3h-44l-5 7-1 3v14l3 10 6 10v2l-8-1-7-5-4-9-1-11 4-20z"/>
</svg>
